<?xml version="1.0" standalone="no"?>
<!DOCTYPE svg PUBLIC "-//W3C//DTD SVG 20010904//EN"
 "http://www.w3.org/TR/2001/REC-SVG-20010904/DTD/svg10.dtd">
<svg version="1.0" xmlns="http://www.w3.org/2000/svg"
 width="900.000000pt" height="1050.000000pt" viewBox="0 0 900.000000 1050.000000"
 preserveAspectRatio="xMidYMid meet">
<metadata>
Created by potrace 1.10, written by Peter Selinger 2001-2011
</metadata>
<g transform="translate(0.000000,1050.000000) scale(0.100000,-0.100000)"
fill="#000000" stroke="none">
<path d="M2620 10316 c0 -145 3 -186 14 -195 10 -8 65 -11 175 -11 88 1 165
-1 170 -5 8 -4 11 -462 11 -1494 0 -1311 -2 -1490 -15 -1501 -8 -7 -15 -16
-15 -20 0 -4 -54 -99 -120 -210 -66 -111 -120 -203 -120 -205 0 -2 -12 -21
-26 -42 -14 -21 -30 -47 -35 -58 -5 -11 -18 -33 -29 -50 -11 -16 -24 -39 -30
-50 -11 -21 -18 -34 -62 -103 -16 -24 -28 -45 -28 -47 0 -2 -60 -104 -133
-228 -74 -123 -137 -230 -140 -238 -4 -8 -16 -27 -27 -44 -11 -16 -24 -39 -30
-50 -6 -11 -19 -33 -30 -50 -11 -16 -24 -39 -30 -50 -5 -11 -14 -27 -20 -35
-16 -24 -245 -413 -253 -430 -4 -8 -16 -28 -27 -45 -11 -16 -24 -39 -30 -50
-6 -11 -19 -33 -30 -50 -11 -16 -24 -39 -30 -50 -6 -11 -19 -33 -30 -50 -11
-16 -24 -39 -30 -50 -5 -11 -14 -27 -20 -35 -5 -8 -71 -118 -145 -245 -74
-126 -139 -237 -145 -245 -6 -8 -15 -24 -20 -35 -6 -11 -19 -33 -30 -50 -11
-16 -24 -39 -30 -50 -6 -11 -19 -33 -30 -50 -11 -16 -23 -37 -27 -45 -7 -16
-236 -404 -253 -430 -6 -8 -15 -24 -20 -35 -6 -11 -19 -33 -30 -50 -11 -16
-24 -39 -30 -50 -6 -11 -19 -33 -30 -50 -11 -16 -24 -39 -30 -50 -6 -11 -19
-33 -30 -50 -11 -16 -23 -37 -27 -45 -4 -8 -59 -103 -123 -211 -64 -107 -120
-202 -123 -210 -4 -8 -16 -27 -27 -44 -11 -16 -24 -39 -30 -50 -6 -11 -19 -33
-30 -50 -11 -16 -24 -39 -30 -50 -6 -11 -19 -33 -30 -50 -11 -16 -23 -37 -27
-45 -3 -8 -17 -32 -30 -52 -24 -40 -116 -220 -139 -276 -15 -34 -34 -79 -54
-127 -7 -16 -16 -43 -20 -60 -5 -16 -13 -43 -18 -60 -65 -189 -98 -424 -88
-626 9 -193 24 -293 58 -394 5 -16 14 -43 18 -60 55 -197 202 -436 369 -603
181 -181 402 -308 660 -379 31 -9 81 -20 111 -26 81 -15 6441 -22 6535 -7 39
6 88 15 110 21 22 6 56 14 75 19 19 4 60 18 90 30 30 12 63 24 74 27 10 3 48
22 85 41 245 130 435 310 572 542 41 71 54 95 91 180 55 124 102 302 114 423
4 45 11 70 20 74 11 4 14 39 14 180 0 100 -4 172 -9 169 -13 -8 -20 15 -26 92
-11 120 -64 336 -113 462 -5 14 -18 45 -27 70 -23 58 -110 236 -135 275 -11
17 -24 39 -30 50 -6 11 -19 34 -30 50 -11 17 -24 39 -30 50 -6 11 -19 34 -30
50 -11 17 -24 39 -30 50 -5 11 -16 29 -22 40 -7 10 -24 37 -38 60 -13 22 -30
49 -37 60 -7 11 -15 27 -19 35 -4 8 -19 33 -33 55 -14 22 -34 56 -44 75 -11
19 -32 54 -48 78 -16 24 -29 45 -29 46 0 2 -101 174 -225 381 -124 207 -225
379 -225 380 0 2 -13 23 -29 47 -16 24 -37 59 -48 78 -18 33 -53 92 -81 135
-6 11 -17 29 -22 40 -6 11 -19 34 -30 50 -11 17 -24 39 -30 50 -6 11 -19 34
-30 50 -11 17 -24 39 -30 50 -6 11 -19 34 -30 50 -11 17 -24 39 -30 50 -6 11
-19 34 -30 50 -11 17 -24 39 -30 50 -6 11 -19 34 -30 50 -11 17 -24 39 -30 50
-6 11 -19 34 -30 50 -11 17 -24 39 -30 50 -6 11 -19 34 -30 50 -11 17 -23 37
-27 45 -3 8 -18 33 -32 55 -37 57 -49 78 -57 94 -4 8 -142 239 -306 514 -164
274 -298 501 -298 502 0 2 -12 23 -27 47 -45 69 -52 82 -63 103 -6 11 -19 34
-30 50 -11 17 -24 39 -30 50 -6 11 -19 34 -30 50 -11 17 -24 39 -30 50 -6 11
-19 34 -30 50 -11 17 -24 39 -30 50 -6 11 -19 34 -30 50 -11 17 -24 39 -30 50
-6 11 -19 34 -30 50 -11 17 -24 39 -30 50 -6 11 -19 34 -30 50 -11 17 -24 39
-30 50 -6 11 -19 34 -30 50 -10 17 -28 48 -40 70 l-21 40 3 1480 3 1480 169 3
c104 1 175 7 183 13 10 9 13 55 13 195 l0 184 -375 0 -375 0 0 -1726 0 -1727
33 -54 c17 -30 40 -67 49 -82 10 -14 22 -35 28 -46 6 -11 19 -33 30 -50 11
-16 24 -39 30 -50 6 -11 19 -33 30 -50 11 -16 24 -39 30 -50 6 -11 19 -33 30
-50 11 -16 24 -39 30 -50 6 -11 19 -33 30 -50 11 -16 24 -39 30 -50 6 -11 19
-33 30 -50 11 -16 23 -37 27 -45 3 -8 18 -33 32 -55 35 -54 43 -69 62 -102 8
-15 163 -275 344 -578 181 -302 334 -559 340 -570 10 -20 49 -83 73 -120 6
-11 17 -29 22 -40 6 -11 19 -33 30 -50 11 -16 24 -39 30 -50 6 -11 19 -33 30
-50 11 -16 24 -39 30 -50 6 -11 19 -33 30 -50 11 -16 24 -39 30 -50 6 -11 19
-33 30 -50 11 -16 24 -39 30 -50 6 -11 19 -33 30 -50 11 -16 24 -39 30 -50 6
-11 19 -33 30 -50 11 -16 24 -39 30 -50 6 -11 19 -33 30 -50 11 -16 24 -39 29
-50 5 -11 21 -37 35 -58 14 -21 26 -39 26 -41 0 -2 142 -241 315 -531 173
-290 315 -528 315 -530 0 -2 13 -23 29 -47 16 -24 37 -59 48 -78 10 -19 30
-53 44 -75 14 -22 29 -47 32 -55 4 -8 16 -28 27 -45 11 -16 24 -39 30 -50 6
-11 19 -33 30 -50 11 -16 24 -39 30 -50 6 -11 19 -33 30 -50 11 -16 24 -39 30
-50 6 -11 19 -33 30 -50 25 -39 120 -231 120 -244 0 -5 6 -22 14 -38 17 -35
35 -87 46 -133 5 -19 13 -53 19 -75 40 -160 45 -202 45 -420 0 -230 -9 -294
-56 -439 -25 -78 -74 -183 -104 -223 -13 -17 -24 -35 -24 -39 0 -12 -70 -93
-141 -164 -114 -114 -315 -232 -439 -257 -14 -2 -47 -12 -75 -21 -46 -16 -292
-17 -3250 -17 -2958 0 -3204 1 -3250 17 -27 9 -61 19 -75 21 -37 8 -104 34
-174 67 -76 37 -83 42 -176 111 -211 157 -357 389 -443 699 -28 102 -30 409
-3 510 31 119 48 175 62 208 8 18 14 39 14 47 0 7 6 26 14 42 7 15 20 44 29
63 28 65 118 245 137 275 11 17 24 39 30 50 6 11 19 34 30 50 11 17 24 39 29
50 5 11 21 37 35 58 14 21 26 40 26 42 0 2 53 93 118 202 65 110 122 206 125
214 4 8 16 28 27 44 11 17 24 39 30 50 6 11 19 34 30 50 11 17 24 39 30 50 6
11 19 34 30 50 11 17 23 37 27 45 4 8 73 125 153 260 80 135 149 252 153 260
4 8 16 29 27 45 11 17 24 39 30 50 6 11 19 34 30 50 11 17 24 39 30 50 6 11
19 34 30 50 11 17 23 36 27 44 3 8 60 104 125 214 65 109 118 200 118 202 0 2
12 21 26 42 14 21 30 47 35 58 5 11 18 34 29 50 11 17 24 39 30 50 6 11 19 34
30 50 11 17 24 39 30 50 6 11 19 34 30 50 11 17 23 36 27 44 3 8 60 104 125
214 65 109 118 200 118 202 0 2 12 23 28 47 44 69 51 82 62 103 6 11 19 34 30
50 11 17 24 39 30 50 6 11 19 34 30 50 10 17 26 44 35 60 8 17 39 68 68 115
l53 85 679 5 680 5 3 175 c2 157 1 176 -15 188 -13 10 -136 12 -557 12 -344 0
-543 3 -549 9 -7 7 -6 16 4 27 13 16 29 41 49 79 6 11 19 34 30 50 11 17 23
37 27 45 8 17 207 357 223 380 20 29 33 66 39 105 l6 40 555 5 555 5 3 187 2
188 -557 2 -558 3 0 370 0 370 370 5 370 5 3 175 c2 157 1 176 -15 188 -13 9
-98 12 -367 12 -192 -1 -353 3 -358 8 -4 4 -7 170 -6 368 l3 359 555 5 555 5
3 187 2 188 -557 2 -558 3 -3 378 -2 377 -375 0 -375 0 0 -184z"/>
<path d="M2669 5188 c-54 -85 -58 -92 -65 -108 -4 -8 -19 -33 -33 -55 -14 -22
-30 -49 -36 -60 -6 -11 -364 -610 -796 -1330 -431 -721 -791 -1326 -800 -1345
-141 -302 -185 -553 -144 -820 20 -130 38 -189 86 -286 97 -194 285 -334 534
-397 195 -49 65 -47 3070 -47 2505 0 2809 2 2890 16 168 29 240 52 360 111
159 80 286 208 364 368 28 56 51 109 51 118 0 8 6 30 14 48 7 19 21 95 31 169
18 140 18 135 -15 350 -10 67 -28 134 -46 178 -8 18 -14 40 -14 48 0 9 -6 28
-13 42 -8 15 -22 45 -32 67 -27 62 -72 147 -103 196 -17 27 -78 128 -97 161
-15 27 -427 704 -447 736 -10 15 -22 36 -27 47 -5 11 -20 36 -33 55 -13 19
-27 42 -31 50 -4 8 -16 29 -27 45 -11 17 -24 39 -30 50 -6 11 -19 34 -30 50
-11 17 -24 39 -30 50 -6 11 -19 34 -30 50 -11 17 -24 39 -30 50 -6 11 -19 34
-30 50 -11 17 -23 37 -27 45 -4 8 -18 31 -31 50 -13 19 -28 44 -33 55 -5 11
-17 32 -27 47 -18 29 -430 707 -447 736 -24 42 -82 136 -97 161 -10 14 -22 35
-28 46 -6 11 -19 34 -30 50 -11 17 -24 39 -30 50 -6 11 -19 34 -30 50 -11 17
-24 39 -30 50 -5 11 -16 28 -23 38 -13 16 -111 17 -1805 17 l-1790 0 -33 -52z
m3416 -348 c17 -19 32 -41 55 -85 6 -11 19 -33 30 -50 11 -16 24 -39 30 -50 6
-11 18 -32 28 -47 9 -15 112 -183 227 -373 116 -190 218 -358 227 -373 10 -15
22 -36 28 -47 6 -11 19 -33 30 -50 11 -16 24 -39 30 -50 6 -11 19 -33 30 -50
11 -16 24 -39 30 -50 6 -11 19 -33 30 -50 11 -16 24 -39 30 -50 6 -11 18 -32
28 -46 15 -24 71 -116 97 -161 16 -28 428 -706 447 -736 10 -15 22 -36 28 -47
6 -11 19 -33 30 -50 11 -16 24 -39 30 -50 6 -11 19 -33 30 -50 11 -16 23 -37
27 -45 5 -8 24 -40 44 -70 58 -89 121 -231 139 -315 5 -22 14 -53 20 -69 18
-48 14 -296 -6 -364 -69 -232 -220 -348 -499 -383 -51 -6 -1086 -8 -2895 -7
-2654 3 -2818 4 -2859 21 -24 9 -52 17 -62 17 -29 0 -149 59 -194 95 -48 39
-90 111 -116 203 -22 76 -27 319 -8 369 6 15 14 46 19 68 17 84 93 260 148
346 9 15 367 610 795 1323 l778 1296 1578 0 c1567 0 1578 0 1596 -20z"/>
</g>
</svg>
