<?xml version="1.0" standalone="no"?>
<!DOCTYPE svg PUBLIC "-//W3C//DTD SVG 20010904//EN"
 "http://www.w3.org/TR/2001/REC-SVG-20010904/DTD/svg10.dtd">
<svg version="1.0" xmlns="http://www.w3.org/2000/svg"
 width="900.000000pt" height="1401.000000pt" viewBox="0 0 900.000000 1401.000000"
 preserveAspectRatio="xMidYMid meet">
<metadata>
Created by potrace 1.10, written by Peter Selinger 2001-2011
</metadata>
<g transform="translate(0.000000,1401.000000) scale(0.100000,-0.100000)"
fill="#000000" stroke="none">
<path d="M4125 13995 c-7 -11 -36 -17 -100 -21 -148 -9 -455 -62 -632 -110
-126 -33 -170 -46 -198 -56 -16 -5 -46 -14 -65 -19 -19 -4 -60 -18 -90 -30
-30 -11 -70 -24 -89 -29 -18 -5 -38 -13 -44 -19 -6 -6 -19 -11 -28 -11 -10 0
-30 -6 -46 -14 -15 -7 -44 -20 -63 -28 -138 -57 -328 -149 -442 -211 -31 -18
-75 -42 -97 -54 -22 -12 -60 -35 -83 -50 -60 -39 -81 -51 -98 -59 -8 -4 -31
-20 -51 -36 -20 -15 -40 -28 -43 -28 -3 0 -43 -27 -88 -61 -343 -251 -578
-466 -827 -754 -81 -94 -245 -306 -276 -357 -5 -9 -32 -49 -60 -90 -27 -40
-53 -80 -58 -88 -4 -8 -16 -28 -27 -45 -11 -16 -24 -39 -30 -50 -6 -11 -26
-47 -45 -80 -61 -105 -198 -389 -239 -495 -10 -25 -24 -58 -31 -75 -7 -16 -15
-39 -18 -50 -3 -11 -15 -45 -27 -75 -12 -30 -26 -68 -30 -85 -5 -16 -16 -52
-24 -80 -40 -132 -57 -194 -65 -235 -5 -25 -13 -65 -19 -90 -66 -275 -82 -419
-89 -840 -5 -327 -1 -423 29 -605 6 -38 14 -92 18 -120 4 -27 13 -72 20 -100
6 -27 18 -77 26 -110 8 -33 21 -81 29 -106 8 -26 15 -54 15 -63 0 -8 6 -30 14
-48 7 -18 23 -62 34 -98 27 -83 42 -127 58 -165 7 -16 20 -50 29 -75 17 -43
26 -66 59 -142 19 -46 106 -230 116 -248 5 -8 28 -51 50 -95 23 -44 47 -89 54
-100 6 -11 29 -52 51 -90 51 -90 52 -91 103 -172 24 -37 48 -77 55 -87 7 -11
36 -53 64 -95 29 -42 68 -101 86 -131 29 -47 130 -190 170 -240 7 -8 24 -31
38 -50 14 -19 64 -87 110 -150 306 -415 329 -447 453 -635 138 -210 146 -223
166 -260 6 -11 19 -33 30 -50 11 -16 24 -39 30 -50 5 -11 25 -47 44 -80 47
-82 133 -257 184 -375 8 -19 19 -44 25 -54 5 -11 13 -31 17 -45 5 -14 18 -51
30 -81 54 -139 131 -395 164 -540 72 -320 100 -532 117 -864 6 -130 8 -296 4
-387 l-8 -158 24 -6 c13 -3 914 -4 2002 -3 l1979 3 3 405 c2 243 8 429 14 465
6 33 15 98 20 145 5 47 15 112 21 145 23 121 42 211 52 250 6 22 15 58 19 80
10 53 29 122 44 165 7 19 20 62 30 95 16 58 25 83 61 178 9 23 23 60 31 82 15
39 28 72 57 138 21 50 175 358 198 397 11 19 52 88 92 153 39 65 76 126 81
135 13 23 140 211 196 292 88 126 146 206 379 519 211 282 293 396 325 449 6
9 22 33 38 53 15 20 27 39 27 42 0 3 19 34 43 69 24 35 46 70 50 78 4 8 16 29
27 45 11 17 24 39 30 50 6 11 24 43 41 70 16 28 37 64 45 80 8 17 30 57 49 90
75 135 190 381 240 515 9 25 22 59 29 75 16 38 31 82 58 165 11 36 27 80 34
98 8 18 14 40 14 48 0 9 7 37 15 63 8 25 21 73 29 106 8 33 19 80 25 105 7 25
16 76 21 113 5 38 12 72 15 77 3 5 10 60 16 122 6 79 14 116 24 124 13 10 15
61 15 343 0 193 -4 330 -9 327 -14 -9 -21 20 -27 103 -12 195 -95 594 -166
806 -5 17 -13 44 -18 60 -13 46 -31 97 -46 127 -8 14 -14 33 -14 41 0 12 -21
67 -75 192 -30 68 -177 364 -210 420 -19 33 -39 69 -45 80 -6 11 -19 34 -30
50 -11 17 -23 36 -26 44 -26 52 -257 375 -320 447 -11 12 -37 43 -59 70 -174
212 -448 473 -686 656 -115 89 -239 178 -245 178 -3 0 -23 13 -43 28 -20 16
-43 32 -51 36 -16 7 -35 18 -95 57 -22 14 -47 29 -55 32 -8 4 -28 16 -45 26
-90 58 -458 241 -484 241 -5 0 -22 6 -38 14 -78 38 -169 72 -313 118 -36 11
-80 27 -98 34 -18 8 -40 14 -48 14 -9 0 -37 6 -63 14 -108 34 -156 45 -376 90
-92 19 -280 45 -378 52 -54 4 -80 10 -84 20 -8 22 -714 21 -728 -1z m614 -495
c205 -14 436 -47 581 -82 25 -6 63 -14 85 -18 22 -3 56 -11 75 -17 19 -6 60
-18 90 -27 100 -28 335 -108 368 -125 9 -5 37 -17 62 -27 42 -16 348 -164 380
-184 8 -5 44 -26 80 -46 169 -98 380 -249 565 -403 110 -92 335 -315 434 -431
40 -47 83 -96 95 -110 99 -112 344 -465 425 -612 13 -24 36 -65 51 -93 49 -88
126 -248 165 -340 7 -16 19 -46 27 -65 22 -51 50 -123 88 -230 6 -19 16 -51
20 -70 4 -19 13 -48 18 -65 16 -46 41 -137 45 -165 3 -14 9 -45 15 -70 17 -68
39 -192 58 -320 24 -164 24 -631 0 -785 -20 -127 -43 -253 -58 -310 -5 -22
-13 -58 -18 -80 -5 -22 -18 -71 -30 -110 -11 -38 -25 -83 -30 -100 -30 -107
-104 -296 -178 -455 -47 -102 -101 -210 -137 -275 -19 -33 -37 -67 -41 -75
-37 -76 -296 -474 -325 -500 -3 -3 -21 -27 -39 -55 -34 -50 -249 -341 -298
-404 -15 -18 -31 -41 -36 -50 -5 -9 -44 -63 -86 -121 -136 -183 -394 -564
-479 -705 -23 -38 -46 -77 -51 -85 -34 -55 -102 -177 -134 -240 -20 -41 -41
-82 -46 -90 -4 -8 -22 -44 -38 -80 -17 -36 -44 -95 -61 -133 -17 -37 -31 -74
-31 -81 0 -8 -4 -17 -10 -21 -5 -3 -14 -20 -19 -38 -5 -18 -19 -57 -31 -87
-36 -94 -108 -316 -135 -420 -9 -36 -23 -87 -30 -115 -8 -27 -21 -86 -30 -130
-9 -44 -23 -108 -31 -142 -8 -34 -14 -74 -14 -89 0 -15 -7 -66 -15 -113 -23
-141 -38 -287 -44 -451 l-6 -155 -245 0 -245 0 -2 1745 -2 1745 494 990 c389
778 492 992 481 1000 -8 6 -101 8 -256 5 l-243 -5 -63 -125 c-68 -137 -298
-606 -308 -630 -3 -8 -10 -22 -15 -30 -5 -8 -63 -125 -129 -260 -66 -135 -180
-369 -254 -520 -74 -151 -151 -309 -172 -350 l-36 -75 0 -1748 0 -1747 -500 0
-500 0 0 1747 0 1748 -36 75 c-37 74 -194 395 -426 870 -66 135 -181 369 -255
520 -74 151 -163 331 -197 400 l-63 125 -243 5 c-155 3 -248 1 -256 -5 -11 -8
92 -222 481 -1000 l494 -990 1 -1748 0 -1747 -247 2 -248 3 -6 136 c-4 75 -10
150 -13 166 -4 17 -11 75 -15 130 -17 194 -75 508 -137 730 -29 108 -47 169
-59 203 -7 19 -20 60 -29 90 -10 30 -24 73 -33 95 -8 22 -21 57 -29 78 -26 69
-46 122 -61 154 -7 18 -20 47 -27 65 -27 63 -176 364 -210 423 -19 33 -44 78
-56 100 -12 22 -34 58 -49 80 -15 22 -30 47 -34 55 -4 8 -16 29 -27 45 -11 17
-23 37 -27 45 -11 22 -212 321 -244 361 -16 20 -29 40 -29 43 0 4 -36 55 -80
114 -43 59 -92 125 -108 147 -115 161 -221 307 -307 424 -56 75 -114 156 -131
181 -17 25 -51 76 -77 113 -26 38 -47 70 -47 72 0 2 -20 33 -45 69 -25 37 -45
68 -45 70 0 4 -67 121 -99 176 -25 41 -160 319 -187 385 -6 17 -19 46 -27 65
-30 70 -92 241 -107 295 -5 17 -13 44 -18 60 -25 74 -36 113 -43 150 -4 22
-12 58 -17 80 -57 226 -75 397 -75 700 0 275 8 372 45 565 6 30 14 75 18 100
10 64 50 219 72 285 5 17 14 46 18 65 8 33 15 55 46 143 68 185 166 403 254
562 15 28 38 69 51 93 35 64 59 103 148 237 48 74 240 333 277 375 12 14 55
63 95 110 99 116 324 339 434 431 185 154 396 305 565 403 36 20 72 41 80 46
32 20 338 168 380 184 25 10 53 22 62 27 31 16 260 94 363 124 33 9 76 22 95
28 19 6 53 14 75 17 22 4 60 12 85 18 302 73 730 106 1079 82z"/>
<path d="M2995 2477 c-3 -7 -4 -118 -3 -247 l3 -235 1495 0 1495 0 0 245 0
245 -1493 3 c-1202 2 -1494 0 -1497 -11z"/>
<path d="M2995 1477 c-3 -7 -4 -118 -3 -247 l3 -235 1495 0 1495 0 0 245 0
245 -1493 3 c-1202 2 -1494 0 -1497 -11z"/>
<path d="M3503 482 c-10 -10 -13 -67 -13 -248 l0 -234 1000 0 1000 0 0 233 c0
127 -4 238 -8 244 -12 19 -1960 24 -1979 5z"/>
</g>
</svg>
