<?xml version="1.0" standalone="no"?>
<!DOCTYPE svg PUBLIC "-//W3C//DTD SVG 20010904//EN"
 "http://www.w3.org/TR/2001/REC-SVG-20010904/DTD/svg10.dtd">
<svg version="1.0" xmlns="http://www.w3.org/2000/svg"
 width="900.000000pt" height="843.000000pt" viewBox="0 0 900.000000 843.000000"
 preserveAspectRatio="xMidYMid meet">
<metadata>
Created by potrace 1.10, written by Peter Selinger 2001-2011
</metadata>
<g transform="translate(0.000000,843.000000) scale(0.100000,-0.100000)"
fill="#000000" stroke="none">
<path d="M4763 8418 c2 -14 -40 -25 -98 -27 -40 -1 -147 -23 -215 -44 -19 -6
-51 -14 -70 -18 -50 -10 -134 -40 -264 -94 -360 -150 -701 -414 -945 -734 -50
-66 -91 -122 -91 -125 0 -3 -13 -24 -29 -48 -16 -24 -45 -74 -66 -113 -52 -96
-53 -97 -89 -89 -17 3 -36 10 -42 15 -12 10 -66 28 -184 61 -65 18 -103 21
-275 22 -160 1 -210 -3 -250 -16 -27 -9 -61 -19 -75 -21 -60 -12 -189 -69
-275 -121 -161 -97 -326 -262 -421 -421 -72 -121 -154 -326 -154 -386 0 -34
-17 -52 -70 -74 -102 -41 -199 -87 -275 -129 -108 -60 -276 -190 -379 -292
-80 -80 -236 -272 -236 -290 0 -4 -6 -15 -14 -23 -37 -41 -143 -271 -179 -386
-52 -169 -67 -281 -67 -513 0 -247 13 -343 71 -527 44 -141 75 -214 152 -356
49 -92 177 -262 262 -349 119 -122 196 -187 315 -265 138 -91 343 -184 500
-228 236 -65 262 -67 1352 -67 l968 0 5 23 c3 12 4 83 3 157 l-3 135 -995 5
c-1025 6 -1025 6 -1185 47 -285 74 -518 209 -718 418 -97 100 -212 265 -268
385 -15 33 -23 51 -62 155 -53 142 -77 289 -77 475 0 170 13 262 62 420 24 81
100 249 141 315 42 68 142 191 206 256 123 123 244 209 401 284 41 20 83 41
93 46 11 6 71 28 135 49 64 21 121 45 128 54 6 9 16 42 22 74 38 211 52 257
105 360 107 210 294 379 502 455 131 48 137 49 307 44 210 -5 243 -14 495
-139 78 -39 148 -68 155 -66 7 3 18 16 25 29 71 149 178 360 193 384 11 17 23
37 27 45 4 8 44 65 90 126 99 134 254 291 383 389 141 107 177 129 330 205 58
28 113 56 122 61 22 11 94 38 133 49 17 4 44 13 60 18 152 52 407 92 589 92
97 0 289 -19 366 -36 36 -8 74 -14 85 -14 11 0 40 -6 65 -14 25 -8 74 -24 110
-35 112 -34 258 -94 327 -132 21 -12 56 -31 78 -42 46 -25 215 -139 253 -171
169 -141 260 -236 368 -381 63 -86 78 -109 94 -140 6 -11 19 -33 30 -50 48
-75 127 -258 164 -380 68 -227 79 -317 80 -655 l1 -305 200 -6 c194 -5 323
-19 395 -41 19 -6 51 -15 70 -19 66 -14 215 -79 328 -143 66 -38 229 -175 291
-246 163 -184 256 -371 316 -632 21 -93 21 -413 0 -506 -83 -359 -245 -611
-530 -822 -79 -58 -84 -62 -190 -114 -138 -68 -248 -104 -400 -131 -78 -13
-233 -15 -1141 -15 -905 0 -1053 -2 -1064 -14 -18 -23 -10 -294 10 -307 10 -6
399 -8 1080 -6 1121 4 1123 4 1320 50 135 32 290 95 445 182 201 112 416 321
557 540 39 62 114 209 147 288 35 86 78 243 86 312 3 28 12 55 20 61 22 16 22
444 1 444 -10 0 -17 17 -21 58 -11 94 -76 315 -114 390 -5 9 -17 35 -27 57
-182 389 -574 723 -984 838 -155 44 -133 40 -362 67 l-108 13 0 130 c0 214
-59 517 -138 717 -44 111 -60 146 -99 225 -24 50 -53 104 -64 120 -10 17 -22
37 -26 45 -39 81 -211 299 -337 427 -207 209 -392 341 -664 473 -56 27 -106
50 -111 50 -5 0 -22 6 -38 14 -101 51 -388 127 -536 142 -37 3 -60 11 -64 20
-4 12 -50 14 -269 14 -199 0 -263 -3 -261 -12z"/>
<path d="M4344 5467 c-12 -7 -14 -343 -14 -2423 0 -2297 -1 -2414 -17 -2405
-10 5 -82 71 -159 148 -78 76 -315 308 -527 516 -211 207 -391 377 -398 377
-17 0 -219 -200 -219 -217 0 -13 -18 5 706 -708 672 -662 762 -749 777 -753
13 -2 110 92 961 932 289 286 526 524 526 530 0 6 -47 58 -104 115 -90 90
-108 103 -125 95 -12 -5 -200 -185 -419 -399 -614 -603 -650 -637 -661 -630
-8 4 -11 717 -11 2411 0 1973 -2 2406 -13 2410 -23 8 -288 9 -303 1z"/>
</g>
</svg>
