<?xml version="1.0" standalone="no"?>
<!DOCTYPE svg PUBLIC "-//W3C//DTD SVG 20010904//EN"
 "http://www.w3.org/TR/2001/REC-SVG-20010904/DTD/svg10.dtd">
<svg version="1.0" xmlns="http://www.w3.org/2000/svg"
 width="900.000000pt" height="900.000000pt" viewBox="0 0 900.000000 900.000000"
 preserveAspectRatio="xMidYMid meet">
<metadata>
Created by potrace 1.10, written by Peter Selinger 2001-2011
</metadata>
<g transform="translate(0.000000,900.000000) scale(0.100000,-0.100000)"
fill="#000000" stroke="none">
<path d="M4123 8988 c1 -9 -23 -15 -83 -21 -47 -4 -116 -12 -155 -18 -38 -6
-97 -15 -130 -19 -87 -11 -162 -27 -340 -70 -27 -7 -66 -16 -85 -21 -19 -4
-66 -17 -105 -29 -38 -12 -83 -25 -100 -30 -66 -19 -200 -68 -330 -120 -147
-60 -400 -182 -495 -238 -19 -11 -53 -30 -75 -42 -22 -12 -59 -35 -83 -51 -24
-16 -45 -29 -47 -29 -9 0 -233 -155 -328 -228 -310 -234 -625 -549 -859 -859
-73 -95 -228 -319 -228 -328 0 -2 -13 -23 -29 -47 -16 -24 -39 -61 -51 -83
-12 -22 -31 -56 -42 -75 -75 -126 -221 -440 -283 -610 -7 -19 -19 -53 -27 -75
-25 -68 -39 -109 -48 -140 -5 -16 -18 -61 -30 -100 -12 -38 -25 -86 -29 -105
-5 -19 -14 -57 -21 -85 -38 -156 -58 -251 -66 -310 -2 -16 -11 -73 -19 -125
-28 -186 -35 -320 -35 -640 0 -320 7 -454 35 -640 8 -52 17 -108 19 -125 8
-59 28 -154 66 -310 7 -27 16 -66 21 -85 4 -19 17 -66 29 -105 12 -38 25 -83
30 -100 9 -31 23 -72 48 -140 8 -22 20 -56 27 -75 62 -170 208 -484 283 -610
11 -19 30 -53 42 -75 12 -22 35 -59 51 -83 16 -24 29 -45 29 -47 0 -9 155
-233 228 -328 234 -310 549 -625 859 -859 95 -73 319 -228 328 -228 2 0 23
-13 47 -29 24 -16 61 -39 83 -51 22 -12 56 -31 75 -42 127 -75 432 -217 613
-284 103 -39 175 -64 212 -74 17 -5 62 -18 100 -30 39 -12 86 -25 105 -29 19
-5 58 -14 85 -21 156 -38 251 -58 310 -66 17 -2 73 -11 125 -19 201 -31 351
-37 710 -32 416 7 561 19 747 63 34 8 71 14 84 14 12 0 45 6 73 14 48 14 108
28 186 47 19 4 67 17 105 29 39 12 84 25 100 30 66 19 200 68 330 120 147 60
400 182 495 238 19 11 53 30 75 42 22 12 59 35 83 51 24 16 45 29 47 29 9 0
233 155 328 228 310 234 625 549 859 859 73 95 228 319 228 328 0 2 13 23 29
47 16 24 39 61 51 83 12 22 31 56 42 75 27 45 149 288 181 360 64 144 151 372
177 465 5 17 18 62 30 100 12 39 25 86 29 105 5 19 14 58 21 85 44 183 59 254
70 345 5 36 13 85 19 110 6 25 11 72 11 105 2 87 14 150 28 147 9 -1 12 84 12
368 0 291 -3 369 -12 367 -9 -1 -15 23 -21 83 -4 47 -12 117 -18 155 -6 39
-15 97 -19 130 -11 87 -27 162 -70 340 -7 28 -16 66 -21 85 -4 19 -17 67 -29
105 -12 39 -25 84 -30 100 -10 37 -35 109 -74 213 -67 180 -209 485 -284 612
-11 19 -30 53 -42 75 -12 22 -35 59 -51 83 -16 24 -29 45 -29 47 0 9 -155 233
-228 328 -234 310 -549 625 -859 859 -95 73 -319 228 -328 228 -2 0 -23 13
-47 29 -24 16 -61 39 -83 51 -22 12 -56 31 -75 42 -126 75 -440 221 -610 283
-19 7 -53 19 -75 27 -68 25 -109 39 -140 48 -16 5 -61 18 -100 30 -38 12 -86
25 -105 29 -19 5 -57 14 -85 21 -178 43 -253 59 -340 70 -33 4 -91 13 -130 19
-38 6 -108 14 -155 18 -60 6 -84 12 -82 21 1 9 -77 12 -368 12 -291 0 -369 -3
-367 -12z m-1059 -960 c8 -18 22 -60 31 -93 10 -33 24 -75 31 -93 8 -18 14
-41 14 -52 0 -11 6 -34 14 -52 7 -18 21 -60 31 -93 9 -33 23 -78 30 -100 7
-22 20 -67 30 -100 10 -33 23 -76 30 -95 7 -19 20 -62 30 -95 9 -33 23 -78 30
-100 7 -22 20 -67 30 -100 10 -33 22 -71 28 -85 9 -23 24 -84 30 -119 1 -8
-35 -33 -93 -63 -179 -93 -352 -207 -479 -314 -131 -111 -238 -216 -309 -304
-20 -25 -41 -49 -47 -55 -15 -14 -124 -160 -160 -215 -49 -75 -56 -87 -134
-235 -29 -55 -57 -104 -61 -109 -5 -5 -20 -5 -37 1 -15 6 -55 18 -88 28 -33 9
-78 23 -100 30 -22 7 -67 20 -100 30 -33 10 -76 23 -95 30 -19 7 -62 20 -95
30 -33 9 -78 23 -100 30 -22 7 -67 20 -100 30 -33 10 -76 23 -95 30 -19 7 -62
20 -95 30 -33 9 -78 23 -100 30 -22 7 -67 20 -100 30 -122 36 -128 42 -100
108 27 63 171 354 207 417 96 169 319 480 454 632 66 73 306 310 368 363 32
28 75 64 95 81 109 92 277 210 448 312 48 29 95 57 103 62 15 10 305 152 370
183 53 24 69 21 84 -15z m2974 -3 c162 -71 382 -189 547 -295 93 -60 291 -203
305 -220 3 -4 28 -24 55 -46 93 -72 331 -302 439 -422 135 -152 361 -466 454
-632 84 -150 222 -440 222 -466 0 -16 -39 -34 -125 -59 -33 -10 -75 -24 -93
-31 -18 -8 -43 -14 -55 -14 -12 -1 -33 -7 -47 -15 -14 -8 -35 -14 -47 -15 -12
0 -37 -6 -55 -14 -31 -13 -53 -20 -193 -61 -33 -9 -75 -24 -93 -31 -18 -8 -41
-14 -52 -14 -11 0 -34 -6 -52 -14 -18 -7 -60 -21 -93 -31 -86 -25 -135 -40
-175 -55 -33 -11 -98 -28 -129 -33 -8 -1 -33 35 -63 93 -42 81 -72 132 -161
275 -19 30 -130 179 -142 190 -6 6 -27 30 -47 55 -147 182 -436 425 -645 541
-15 8 -73 39 -128 68 -55 29 -104 57 -109 61 -5 5 -5 20 1 37 6 15 18 55 28
88 9 33 23 78 30 100 7 22 20 67 30 100 10 33 23 76 30 95 7 19 20 62 30 95 9
33 23 78 30 100 7 22 20 67 30 100 10 33 24 75 31 93 8 18 14 41 14 52 0 11 6
34 14 52 7 18 21 60 31 93 10 33 24 77 31 98 8 20 14 45 14 55 0 23 28 62 44
62 7 0 49 -16 94 -35z m-1243 -1631 c96 -17 191 -39 240 -55 17 -6 44 -15 60
-19 64 -18 182 -67 255 -104 80 -42 147 -80 161 -92 8 -8 19 -14 23 -14 20 0
224 -167 317 -259 92 -93 259 -297 259 -317 0 -4 6 -15 14 -23 12 -14 50 -81
92 -161 37 -73 86 -191 104 -255 4 -16 13 -43 19 -60 15 -44 37 -138 55 -236
23 -122 23 -496 1 -617 -19 -99 -41 -193 -56 -237 -6 -16 -15 -43 -19 -60 -18
-64 -67 -182 -104 -255 -42 -80 -80 -147 -92 -161 -8 -8 -14 -19 -14 -23 0
-20 -167 -224 -259 -317 -93 -92 -297 -259 -317 -259 -4 0 -15 -6 -23 -14 -14
-12 -81 -50 -161 -92 -73 -37 -191 -86 -255 -104 -16 -4 -43 -13 -60 -19 -44
-15 -138 -37 -237 -56 -122 -23 -494 -23 -616 0 -99 19 -193 41 -237 56 -16 6
-43 15 -60 19 -64 18 -182 67 -255 104 -80 42 -147 80 -161 92 -8 8 -19 14
-23 14 -20 0 -224 167 -317 259 -92 93 -259 297 -259 317 0 4 -6 15 -14 23
-12 14 -50 81 -92 161 -37 73 -86 191 -104 255 -4 17 -13 44 -19 60 -15 44
-37 138 -56 237 -23 122 -23 494 0 616 19 99 41 193 56 237 6 17 15 44 19 60
18 64 67 182 104 255 42 80 80 147 92 161 8 8 14 19 14 23 0 20 167 224 259
317 93 92 297 259 317 259 4 0 15 6 23 14 14 12 81 50 161 92 73 37 191 86
255 104 17 4 44 13 60 19 39 13 133 36 215 52 140 28 482 29 635 3z m-2602
-3065 c41 -80 71 -130 160 -274 19 -30 130 -179 142 -190 6 -5 27 -30 47 -55
147 -182 436 -425 645 -541 15 -8 73 -39 128 -68 55 -29 104 -57 109 -61 5 -5
5 -20 -1 -37 -6 -15 -18 -55 -28 -88 -9 -33 -23 -78 -30 -100 -7 -22 -20 -67
-30 -100 -10 -33 -23 -76 -30 -95 -7 -19 -20 -62 -30 -95 -9 -33 -23 -78 -30
-100 -7 -22 -20 -67 -30 -100 -10 -33 -24 -75 -31 -93 -8 -18 -14 -41 -14 -52
0 -11 -6 -34 -14 -52 -7 -18 -20 -55 -28 -83 -8 -27 -23 -77 -33 -110 -36
-122 -42 -128 -108 -100 -157 66 -434 213 -592 315 -95 61 -291 203 -305 220
-3 4 -28 24 -55 46 -93 72 -331 302 -439 422 -128 144 -399 518 -436 604 -6
12 -19 37 -29 53 -50 78 -211 415 -211 441 0 16 39 34 125 59 33 10 75 24 93
31 18 8 41 14 52 14 11 0 34 6 52 14 18 7 60 21 93 31 33 9 78 23 100 30 22 7
67 20 100 30 33 10 76 23 95 30 19 7 62 20 95 30 33 9 78 23 100 30 22 7 67
20 100 30 33 10 75 24 93 31 18 8 43 14 55 14 12 0 29 5 37 10 8 5 19 8 25 7
5 -2 31 -46 58 -98z m4689 92 c13 -4 50 -16 83 -26 33 -9 78 -23 100 -30 22
-7 67 -20 100 -30 33 -10 76 -23 95 -30 19 -7 62 -20 95 -30 33 -9 78 -23 100
-30 22 -7 67 -20 100 -30 33 -10 75 -24 93 -31 18 -8 41 -14 52 -14 11 0 34
-6 52 -14 18 -7 56 -20 83 -28 28 -8 77 -23 110 -33 122 -36 128 -42 100 -108
-27 -63 -171 -354 -207 -417 -96 -169 -319 -480 -454 -632 -66 -73 -306 -310
-368 -363 -32 -27 -75 -64 -95 -81 -109 -92 -277 -210 -448 -312 -48 -29 -95
-57 -103 -62 -24 -15 -311 -156 -364 -179 -27 -12 -55 -21 -62 -21 -16 0 -34
39 -59 125 -10 33 -24 75 -31 93 -8 18 -14 41 -14 52 0 11 -6 34 -14 52 -7 18
-21 60 -31 93 -9 33 -23 78 -30 100 -7 22 -20 67 -30 100 -10 33 -24 75 -31
93 -8 18 -14 41 -14 52 0 11 -6 34 -14 52 -7 18 -21 60 -31 93 -25 86 -40 135
-55 175 -11 33 -28 98 -33 129 -1 8 35 33 93 63 81 42 132 72 275 161 30 19
179 130 190 142 6 6 30 27 55 47 182 147 425 436 541 645 8 15 39 73 68 128
30 55 55 103 58 108 6 9 17 9 45 -2z"/>
</g>
</svg>
