<?xml version="1.0" standalone="no"?>
<!DOCTYPE svg PUBLIC "-//W3C//DTD SVG 20010904//EN"
 "http://www.w3.org/TR/2001/REC-SVG-20010904/DTD/svg10.dtd">
<svg version="1.0" xmlns="http://www.w3.org/2000/svg"
 width="900.000000pt" height="900.000000pt" viewBox="0 0 900.000000 900.000000"
 preserveAspectRatio="xMidYMid meet">
<metadata>
Created by potrace 1.10, written by Peter Selinger 2001-2011
</metadata>
<g transform="translate(0.000000,900.000000) scale(0.100000,-0.100000)"
fill="#000000" stroke="none">
<path d="M4125 8990 c9 -15 -8 -19 -135 -29 -153 -13 -245 -28 -475 -77 -146
-31 -367 -92 -433 -120 -18 -8 -39 -14 -47 -14 -8 0 -29 -6 -47 -14 -18 -8
-51 -21 -73 -29 -152 -57 -270 -109 -450 -199 -156 -78 -150 -75 -260 -141
-528 -317 -960 -704 -1311 -1173 -109 -146 -171 -236 -216 -311 -7 -12 -35
-59 -63 -105 -68 -113 -64 -106 -143 -263 -89 -179 -147 -310 -197 -445 -7
-19 -19 -53 -27 -75 -25 -68 -39 -109 -48 -140 -5 -16 -18 -61 -30 -100 -12
-38 -25 -86 -29 -105 -5 -19 -14 -57 -21 -85 -38 -156 -58 -251 -66 -310 -2
-16 -11 -73 -19 -125 -28 -186 -35 -320 -35 -640 0 -320 7 -454 35 -640 8 -52
17 -108 19 -125 8 -59 28 -154 66 -310 7 -27 16 -66 21 -85 4 -19 17 -66 29
-105 12 -38 25 -83 30 -100 9 -31 23 -72 48 -140 8 -22 20 -56 27 -75 58 -157
202 -472 278 -605 19 -32 110 -184 129 -213 9 -15 23 -37 30 -49 107 -183 426
-572 634 -773 224 -218 544 -469 751 -592 12 -7 59 -35 105 -63 113 -68 106
-64 263 -143 180 -90 298 -142 450 -199 22 -8 55 -21 73 -29 18 -8 39 -14 47
-14 8 0 29 -6 47 -14 66 -28 287 -89 433 -120 380 -80 492 -91 970 -91 485 0
601 11 980 91 146 31 367 92 433 120 18 8 39 14 47 14 8 0 29 6 47 14 18 8 51
21 73 29 173 65 476 204 610 280 32 19 184 110 213 129 15 9 37 23 49 30 159
93 494 362 697 558 229 222 531 595 668 827 7 12 36 59 63 105 68 113 64 106
143 263 90 180 142 298 199 450 8 22 21 55 29 73 8 18 14 39 14 47 0 8 6 29
14 47 17 40 61 187 90 303 53 213 92 434 107 609 10 122 14 140 30 131 5 -4 9
138 9 365 0 247 -3 369 -10 365 -15 -9 -19 8 -29 135 -13 153 -28 245 -77 475
-31 146 -92 367 -120 433 -8 18 -14 39 -14 47 0 8 -6 29 -14 47 -8 18 -21 51
-29 73 -65 173 -204 476 -280 610 -19 32 -110 184 -129 213 -9 15 -23 37 -30
49 -93 159 -362 494 -558 697 -222 229 -595 531 -827 668 -12 7 -59 36 -105
63 -113 68 -106 64 -263 143 -180 90 -298 142 -450 199 -22 8 -55 21 -73 29
-18 8 -39 14 -47 14 -8 0 -29 6 -47 14 -40 17 -187 61 -303 90 -209 53 -432
92 -605 107 -127 10 -144 14 -135 29 4 7 -118 10 -365 10 -247 0 -369 -3 -365
-10z m605 -386 c102 -3 219 -12 260 -20 41 -8 89 -14 105 -14 17 0 64 -7 105
-15 41 -9 109 -23 150 -31 82 -17 171 -38 240 -58 138 -40 168 -49 198 -62 18
-8 39 -14 47 -14 8 0 29 -6 47 -14 18 -8 53 -22 78 -31 156 -60 378 -164 515
-241 33 -18 69 -38 80 -44 11 -6 34 -19 50 -30 17 -11 37 -23 45 -27 32 -15
202 -132 315 -217 311 -233 588 -510 821 -821 85 -113 202 -283 217 -315 4 -8
16 -28 27 -45 11 -16 24 -39 30 -50 6 -11 26 -47 44 -80 52 -92 143 -277 182
-372 8 -18 20 -48 28 -65 7 -18 21 -53 31 -78 9 -25 23 -60 31 -78 8 -18 14
-39 14 -47 0 -8 6 -29 14 -47 29 -70 90 -292 120 -438 8 -41 22 -109 31 -150
8 -41 15 -91 15 -110 0 -19 5 -53 11 -75 5 -22 16 -149 22 -283 10 -193 10
-291 0 -485 -6 -133 -17 -260 -22 -282 -6 -22 -11 -56 -11 -75 0 -19 -7 -69
-15 -110 -9 -41 -23 -109 -31 -150 -17 -82 -38 -171 -58 -240 -40 -138 -49
-168 -62 -198 -8 -18 -14 -39 -14 -47 0 -8 -6 -29 -14 -47 -8 -18 -28 -69 -46
-113 -62 -157 -140 -324 -210 -450 -15 -27 -38 -68 -50 -90 -12 -22 -30 -53
-41 -70 -10 -16 -22 -37 -26 -45 -15 -32 -132 -202 -217 -315 -224 -300 -521
-597 -821 -821 -113 -85 -283 -202 -315 -217 -8 -4 -28 -16 -45 -26 -16 -11
-48 -29 -70 -41 -22 -12 -62 -35 -90 -50 -126 -70 -293 -148 -450 -210 -44
-18 -95 -38 -113 -46 -18 -8 -39 -14 -47 -14 -8 0 -29 -6 -47 -14 -70 -29
-292 -90 -438 -120 -41 -8 -109 -22 -150 -31 -41 -8 -91 -15 -110 -15 -19 0
-53 -5 -75 -11 -22 -5 -149 -16 -283 -22 -193 -10 -291 -10 -485 0 -133 6
-260 17 -282 22 -22 6 -56 11 -75 11 -19 0 -69 7 -110 15 -41 9 -109 23 -150
31 -82 17 -171 38 -240 58 -138 40 -168 49 -198 62 -18 8 -39 14 -47 14 -8 0
-29 6 -47 14 -18 8 -53 22 -78 31 -156 60 -378 164 -515 241 -33 18 -69 38
-80 44 -11 6 -33 19 -50 30 -16 11 -37 23 -45 27 -32 15 -202 132 -315 217
-311 233 -588 510 -821 821 -85 113 -202 283 -217 315 -4 8 -16 29 -27 45 -11
17 -24 39 -30 50 -6 11 -26 47 -44 80 -52 92 -143 277 -182 373 -8 17 -20 47
-28 65 -7 17 -21 52 -31 77 -9 25 -23 60 -31 78 -8 18 -14 39 -14 47 0 8 -6
29 -14 47 -29 70 -90 292 -120 438 -8 41 -22 109 -31 150 -8 41 -15 91 -15
110 0 19 -5 53 -11 75 -5 22 -16 149 -22 282 -10 194 -10 292 0 485 6 134 17
261 22 283 6 22 11 56 11 75 0 19 7 69 15 110 9 41 23 109 31 150 17 82 38
171 58 240 40 138 49 168 62 198 8 18 14 39 14 47 0 8 6 29 14 47 8 18 22 53
31 78 24 62 47 116 100 235 41 93 151 304 186 360 10 17 23 39 29 50 36 67
144 227 244 360 234 312 510 588 821 821 113 85 283 202 315 217 8 4 29 16 45
27 17 11 39 24 50 30 11 6 47 26 80 44 141 79 353 179 515 241 25 9 60 23 78
31 18 8 39 14 47 14 8 0 29 6 47 14 30 13 60 22 198 62 69 20 158 41 240 58
41 8 109 22 150 31 41 8 91 15 110 15 19 0 53 5 75 11 44 11 490 39 545 33 19
-2 118 -6 220 -10z"/>
<path d="M5643 5523 c-359 -362 -962 -971 -1342 -1353 l-690 -695 -510 510
-511 510 -192 -193 -193 -192 620 -620 c341 -342 642 -635 669 -652 41 -27 58
-32 110 -31 43 0 74 7 106 23 30 15 158 136 390 369 1664 1670 2580 2595 2580
2604 0 18 -354 377 -371 377 -9 0 -308 -296 -666 -657z"/>
</g>
</svg>
