<?xml version="1.0" standalone="no"?>
<!DOCTYPE svg PUBLIC "-//W3C//DTD SVG 20010904//EN"
 "http://www.w3.org/TR/2001/REC-SVG-20010904/DTD/svg10.dtd">
<svg version="1.0" xmlns="http://www.w3.org/2000/svg"
 width="900.000000pt" height="900.000000pt" viewBox="0 0 900.000000 900.000000"
 preserveAspectRatio="xMidYMid meet">
<metadata>
Created by potrace 1.10, written by Peter Selinger 2001-2011
</metadata>
<g transform="translate(0.000000,900.000000) scale(0.100000,-0.100000)"
fill="#000000" stroke="none">
<path d="M4123 8988 c2 -14 -61 -26 -142 -27 -54 -1 -172 -19 -306 -47 -38 -8
-79 -14 -89 -14 -11 0 -42 -6 -70 -14 -48 -14 -108 -28 -186 -47 -19 -4 -66
-17 -105 -29 -38 -12 -83 -25 -100 -30 -66 -19 -200 -68 -330 -120 -149 -61
-358 -160 -470 -224 -33 -19 -78 -44 -100 -56 -22 -12 -59 -35 -83 -51 -24
-16 -45 -29 -47 -29 -9 0 -233 -155 -328 -228 -232 -175 -508 -435 -694 -653
-137 -161 -322 -412 -395 -536 -7 -12 -32 -54 -56 -92 -124 -204 -257 -481
-349 -726 -8 -22 -21 -55 -29 -73 -8 -18 -14 -39 -14 -47 0 -8 -6 -29 -14 -47
-17 -40 -61 -187 -90 -303 -27 -108 -68 -308 -87 -425 -24 -153 -30 -254 -36
-605 -5 -364 1 -512 32 -715 8 -52 17 -108 19 -125 8 -59 28 -154 66 -310 7
-27 16 -66 21 -85 4 -19 17 -66 29 -105 12 -38 25 -83 30 -100 9 -31 23 -72
48 -140 8 -22 20 -56 27 -75 96 -263 249 -570 407 -818 9 -15 23 -37 30 -49
50 -85 246 -347 361 -482 186 -218 462 -478 694 -653 95 -73 319 -228 328
-228 2 0 23 -13 47 -29 24 -16 61 -39 83 -51 22 -12 67 -37 100 -56 145 -82
407 -203 588 -270 103 -39 175 -64 212 -74 17 -5 62 -18 100 -30 39 -12 86
-25 105 -29 78 -19 138 -33 186 -47 28 -8 61 -14 73 -14 13 0 50 -6 84 -14
198 -47 390 -61 817 -61 480 0 597 11 975 91 146 31 367 92 433 120 18 8 39
14 47 14 8 0 29 6 47 14 18 8 51 21 73 29 173 65 476 204 610 280 32 19 184
110 213 129 15 9 37 23 49 30 159 93 494 362 697 558 229 222 531 595 668 827
7 12 36 59 63 105 68 113 64 106 143 263 90 180 142 298 199 450 8 22 21 55
29 73 8 18 14 39 14 47 0 8 6 29 14 47 17 40 61 187 90 303 53 213 92 434 107
609 10 122 14 140 30 131 5 -4 9 138 9 365 0 247 -3 369 -10 365 -15 -9 -19 8
-29 135 -13 153 -28 245 -77 475 -31 146 -92 367 -120 433 -8 18 -14 39 -14
47 0 8 -6 29 -14 47 -8 18 -21 51 -29 73 -65 173 -204 476 -280 610 -19 32
-110 184 -129 213 -9 15 -23 37 -30 49 -93 159 -362 494 -558 697 -222 229
-595 531 -827 668 -12 7 -59 36 -105 63 -113 68 -106 64 -263 143 -180 90
-298 142 -450 199 -22 8 -55 21 -73 29 -18 8 -39 14 -47 14 -8 0 -29 6 -47 14
-40 17 -187 61 -303 90 -209 53 -432 92 -605 107 -127 10 -144 14 -135 29 4 7
-118 10 -364 10 -284 0 -370 -3 -368 -12z m185 -1358 c1 -530 -1 -967 -5 -971
-5 -4 -62 -3 -128 2 -66 5 -176 14 -245 19 -249 17 -674 85 -857 136 -57 16
-65 32 -41 77 6 12 15 35 19 52 10 42 48 148 74 210 7 17 21 50 30 75 46 119
172 385 224 470 11 19 25 45 31 58 5 12 27 48 48 80 21 32 41 64 45 72 29 61
199 274 296 371 156 155 239 212 441 302 71 32 65 114 68 -953z m438 944 c102
-44 157 -75 229 -128 319 -234 597 -632 823 -1176 8 -19 21 -48 28 -63 8 -16
14 -36 14 -46 0 -9 5 -22 11 -28 6 -6 14 -26 19 -44 5 -19 18 -59 30 -89 12
-30 25 -69 29 -85 4 -17 13 -40 20 -52 10 -20 8 -24 -17 -37 -15 -8 -46 -17
-67 -21 -22 -3 -69 -13 -105 -20 -259 -56 -544 -94 -880 -118 -114 -8 -190 -9
-197 -4 -10 7 -13 212 -13 967 0 826 2 970 15 970 2 0 29 -12 61 -26z m804
-82 c19 -5 62 -18 95 -27 33 -10 76 -23 95 -30 81 -29 107 -37 135 -45 39 -11
111 -38 133 -49 9 -5 42 -19 72 -31 221 -88 519 -249 722 -390 122 -85 172
-121 193 -138 11 -9 52 -42 90 -72 39 -30 88 -70 109 -90 139 -124 222 -203
229 -216 11 -19 0 -34 -23 -34 -10 0 -21 -4 -24 -9 -13 -20 -423 -207 -611
-278 -22 -8 -49 -20 -60 -26 -11 -5 -33 -14 -50 -18 -16 -4 -55 -17 -85 -29
-30 -12 -68 -25 -85 -30 -16 -4 -41 -12 -55 -17 -96 -39 -127 -38 -136 6 -3
14 -11 42 -18 61 -29 77 -38 106 -43 130 -3 14 -12 34 -19 45 -8 11 -14 28
-14 38 0 10 -6 31 -14 45 -8 15 -21 47 -31 72 -66 174 -198 450 -287 595 -10
17 -21 37 -25 45 -4 8 -26 43 -50 78 -24 35 -43 65 -43 67 0 5 -100 146 -110
155 -3 3 -32 39 -65 80 -33 41 -68 83 -78 93 -18 18 -14 42 7 34 6 -2 27 -9
46 -15z m-2071 -9 c-8 -10 -49 -60 -93 -112 -43 -52 -99 -126 -125 -164 -85
-127 -140 -212 -162 -252 -11 -22 -35 -65 -52 -95 -79 -143 -193 -390 -252
-550 -7 -19 -21 -55 -30 -80 -17 -43 -28 -75 -54 -150 -7 -19 -16 -50 -21 -68
-12 -50 -39 -85 -58 -77 -9 4 -30 11 -47 15 -44 12 -156 52 -213 76 -18 8 -41
14 -50 14 -10 0 -27 7 -38 15 -10 8 -27 15 -36 15 -9 0 -29 6 -45 14 -15 8
-64 29 -108 47 -110 44 -318 137 -355 159 -8 5 -52 27 -97 50 -46 22 -83 47
-83 54 0 12 102 117 170 176 14 12 41 36 60 54 52 47 176 147 219 176 20 14
70 50 111 80 41 30 82 60 91 65 13 8 253 151 309 185 54 32 290 144 380 180
30 12 63 26 72 31 22 11 94 38 133 49 17 4 46 14 65 21 19 6 51 17 70 24 32
11 85 27 180 53 19 6 43 10 54 11 16 1 17 -1 5 -16z m-2113 -1409 c127 -69
316 -160 464 -225 25 -11 59 -26 75 -33 37 -17 176 -73 230 -93 22 -8 51 -20
65 -25 14 -5 56 -20 95 -33 38 -12 81 -27 95 -33 14 -6 58 -20 98 -32 39 -13
72 -27 72 -33 0 -5 -5 -28 -11 -51 -20 -78 -37 -151 -52 -226 -9 -41 -22 -109
-31 -150 -39 -194 -92 -567 -106 -745 -5 -60 -13 -150 -19 -200 -5 -49 -13
-184 -17 -300 -4 -140 -10 -212 -18 -217 -15 -10 -1943 -10 -1949 0 -11 17 34
406 64 562 6 30 14 75 18 100 4 25 13 65 20 90 7 25 19 72 27 105 8 33 20 74
26 90 5 17 14 46 18 65 9 39 25 87 46 138 8 18 14 41 14 50 0 10 7 27 15 38 8
10 15 28 15 39 0 11 7 29 15 39 8 11 15 26 15 33 0 23 132 305 195 418 19 33
39 70 44 82 24 52 164 269 241 373 119 161 152 200 169 200 10 0 40 -12 67
-26z m6437 -111 c57 -76 119 -163 139 -193 62 -96 139 -221 149 -243 5 -12 25
-49 44 -82 63 -113 195 -395 195 -418 0 -7 7 -22 15 -33 8 -10 15 -28 15 -39
0 -11 7 -29 15 -39 8 -11 15 -28 15 -38 0 -9 6 -32 14 -50 21 -51 37 -99 46
-138 4 -19 13 -48 18 -65 6 -16 18 -57 26 -90 8 -33 21 -87 29 -120 9 -33 21
-89 28 -125 36 -190 83 -599 70 -613 -4 -4 -448 -6 -987 -5 l-979 3 -7 175
c-3 96 -11 219 -17 272 -6 54 -11 121 -11 150 1 68 -48 474 -71 598 -6 30 -14
84 -19 120 -4 36 -13 90 -20 120 -6 30 -18 89 -27 130 -23 116 -42 200 -60
262 -17 61 -9 88 26 88 9 1 68 19 131 41 63 22 129 44 145 49 55 16 120 41
129 51 6 5 18 9 27 9 10 0 30 6 46 14 15 8 69 31 118 52 174 71 385 170 540
254 39 21 80 38 92 39 18 1 45 -29 126 -136z m-4769 -507 c28 -8 89 -22 136
-31 47 -9 108 -21 135 -26 28 -6 79 -15 115 -19 36 -4 97 -13 135 -19 154 -23
319 -41 485 -52 96 -6 193 -12 215 -14 22 -2 43 -4 48 -4 4 -1 6 -364 5 -808
l-3 -808 -810 0 -810 0 3 175 c2 170 21 436 43 610 6 47 14 121 18 165 5 44
13 107 19 140 6 33 18 105 27 160 17 106 39 220 57 295 6 25 14 63 18 85 6 33
20 93 36 153 5 16 65 15 128 -2z m3025 1 c6 -8 15 -38 21 -67 5 -29 14 -69 19
-89 12 -45 36 -161 55 -266 8 -44 20 -107 26 -140 6 -33 15 -91 20 -130 4 -38
13 -104 19 -145 34 -240 66 -646 66 -830 l0 -115 -807 -3 -808 -2 0 810 c0
445 3 810 8 811 4 0 27 2 52 4 25 2 119 8 210 14 196 14 404 36 516 56 45 8
92 15 105 15 13 0 56 6 94 14 39 8 108 22 155 31 47 9 105 22 130 30 60 17
105 18 119 2z m-3753 -2155 c8 -5 14 -78 18 -222 8 -261 44 -653 81 -885 8
-49 17 -108 19 -130 5 -40 15 -97 43 -235 37 -187 45 -228 55 -265 27 -103 35
-155 24 -163 -6 -4 -38 -16 -71 -26 -33 -10 -71 -23 -85 -28 -14 -6 -56 -21
-95 -34 -38 -12 -95 -33 -125 -44 -30 -12 -67 -25 -81 -30 -14 -4 -34 -12 -45
-18 -10 -5 -39 -18 -64 -27 -25 -10 -58 -23 -75 -31 -94 -41 -126 -55 -180
-79 -70 -32 -301 -146 -364 -181 -24 -13 -52 -24 -61 -24 -17 0 -83 72 -138
150 -17 25 -50 70 -72 100 -22 30 -43 62 -47 70 -4 8 -26 43 -50 77 -24 35
-43 65 -43 67 0 4 -71 128 -100 176 -62 103 -232 484 -260 585 -5 17 -19 62
-33 100 -13 39 -32 97 -41 130 -10 33 -24 80 -32 105 -8 25 -14 54 -14 64 0
11 -6 42 -14 70 -14 47 -25 103 -56 276 -7 36 -16 106 -20 155 -5 50 -14 134
-20 188 -6 53 -8 102 -5 107 7 12 1933 14 1951 2z m2002 -803 l2 -806 -232
-16 c-224 -17 -394 -35 -543 -59 -38 -6 -86 -12 -105 -15 -61 -6 -304 -54
-401 -79 -68 -17 -119 -18 -123 -1 -16 59 -30 119 -36 152 -4 22 -12 60 -18
85 -11 44 -28 131 -53 260 -7 36 -16 92 -19 125 -8 67 -24 182 -46 325 -8 53
-14 120 -14 150 -1 30 -5 87 -10 125 -11 78 -31 546 -23 558 2 4 367 6 811 5
l807 -3 3 -806z m1980 726 c2 -44 -4 -161 -12 -261 -9 -99 -16 -202 -16 -230
0 -45 -12 -156 -42 -374 -6 -47 -14 -112 -18 -145 -4 -33 -12 -89 -19 -125 -7
-36 -19 -101 -27 -145 -20 -106 -43 -221 -55 -266 -5 -20 -14 -60 -19 -89 -16
-85 -34 -94 -134 -66 -83 23 -190 46 -211 46 -11 0 -51 6 -90 14 -89 19 -236
41 -395 60 -112 14 -194 21 -492 43 l-88 6 0 802 c0 441 3 805 7 808 3 4 367
6 807 5 l801 -3 3 -80z m2335 78 c11 -18 -34 -407 -64 -563 -6 -30 -14 -75
-18 -100 -4 -25 -13 -65 -20 -90 -7 -25 -19 -72 -27 -105 -8 -33 -20 -73 -26
-90 -5 -16 -14 -46 -18 -65 -4 -19 -14 -51 -20 -70 -26 -73 -42 -116 -56 -148
-8 -18 -14 -39 -14 -47 0 -7 -6 -26 -14 -42 -7 -15 -20 -44 -28 -63 -32 -76
-135 -300 -148 -320 -5 -8 -21 -37 -35 -65 -15 -27 -32 -59 -38 -70 -11 -19
-92 -154 -120 -200 -7 -11 -24 -36 -39 -56 -16 -20 -28 -40 -28 -43 0 -4 -47
-70 -105 -146 -68 -90 -112 -140 -124 -140 -10 0 -40 12 -67 26 -127 69 -316
160 -464 225 -94 42 -106 47 -150 64 -25 10 -58 23 -75 30 -16 7 -49 20 -72
29 -106 40 -130 49 -161 62 -18 8 -39 14 -47 14 -8 0 -29 6 -47 14 -56 23
-101 38 -137 45 -50 9 -58 28 -38 98 36 130 87 377 121 593 32 205 39 248 46
325 4 44 12 125 18 180 19 171 34 374 39 540 2 88 6 166 8 173 4 9 209 12 984
12 539 0 982 -3 984 -7z m-4315 -2950 c2 -947 2 -973 -17 -973 -16 0 -53 14
-156 61 -11 5 -33 18 -50 29 -16 11 -37 23 -45 27 -35 15 -141 104 -227 188
-102 100 -180 193 -257 305 -58 86 -54 79 -124 196 -29 49 -57 96 -62 104 -11
19 -136 273 -156 318 -37 83 -68 159 -89 212 -9 25 -22 56 -27 70 -6 14 -14
39 -18 55 -5 17 -20 61 -34 99 -14 38 -26 77 -26 86 0 18 51 35 195 65 44 9
108 23 142 31 34 8 73 14 88 14 15 0 64 7 109 15 122 22 236 35 386 46 74 6
178 14 230 18 52 5 104 8 115 7 20 -1 20 -9 23 -973z m657 957 c178 -14 385
-38 475 -55 42 -8 87 -15 100 -15 24 0 125 -19 220 -42 25 -6 69 -14 98 -19
29 -4 64 -15 78 -24 21 -14 23 -19 13 -38 -7 -12 -16 -35 -20 -52 -7 -29 -17
-58 -45 -137 -26 -72 -46 -123 -59 -153 -7 -16 -23 -55 -35 -85 -82 -203 -218
-462 -334 -635 -47 -70 -155 -216 -171 -230 -6 -5 -37 -40 -68 -76 -32 -37
-90 -93 -129 -125 -39 -33 -76 -63 -82 -69 -69 -60 -305 -183 -327 -170 -11 7
-13 1928 -1 1939 4 5 41 5 82 2 41 -3 134 -11 205 -16z m-2291 -302 c8 -24 24
-70 35 -103 11 -33 30 -85 41 -115 12 -30 24 -64 27 -75 3 -11 11 -33 18 -50
8 -16 30 -70 50 -120 99 -240 229 -490 355 -680 56 -85 112 -165 137 -194 15
-19 56 -69 90 -110 34 -41 60 -77 58 -79 -6 -7 -160 33 -245 63 -19 7 -51 18
-70 24 -19 7 -48 17 -65 21 -39 11 -111 38 -133 49 -9 5 -42 19 -72 31 -90 36
-326 148 -380 180 -8 5 -76 46 -150 90 -173 103 -162 96 -250 160 -41 31 -87
63 -101 72 -14 9 -32 23 -40 30 -8 7 -34 29 -59 48 -106 81 -370 324 -370 341
0 6 262 138 365 185 17 7 60 27 98 43 37 17 74 31 81 31 8 0 17 4 21 10 3 5
20 14 38 19 18 5 57 19 87 31 30 12 66 25 80 30 14 5 50 18 80 30 30 12 69 25
85 30 31 8 85 27 120 41 41 16 53 10 69 -33z m3746 16 c47 -14 102 -32 123
-40 20 -8 54 -20 75 -28 20 -8 56 -21 80 -30 23 -9 61 -23 85 -32 23 -8 55
-22 70 -30 16 -8 33 -14 38 -14 5 0 39 -14 76 -31 38 -16 82 -36 98 -44 90
-40 365 -177 365 -181 0 -18 -31 -51 -135 -144 -65 -58 -127 -114 -139 -125
-36 -32 -145 -118 -185 -145 -20 -14 -70 -50 -111 -80 -41 -30 -82 -59 -91
-65 -9 -5 -66 -40 -126 -76 -197 -121 -390 -220 -563 -289 -30 -12 -63 -26
-72 -31 -22 -11 -94 -38 -133 -49 -28 -8 -54 -16 -135 -45 -19 -7 -62 -20 -95
-30 -33 -9 -80 -23 -104 -31 -57 -18 -71 -6 -36 32 79 84 279 353 309 415 3 8
15 28 26 44 11 17 24 39 30 50 6 11 26 47 44 80 60 107 196 387 196 404 0 5 6
22 14 38 21 42 55 123 76 183 5 14 25 70 45 125 20 55 40 114 44 130 14 49 22
65 35 65 6 0 49 -12 96 -26z"/>
</g>
</svg>
