<?xml version="1.0" standalone="no"?>
<!DOCTYPE svg PUBLIC "-//W3C//DTD SVG 20010904//EN"
 "http://www.w3.org/TR/2001/REC-SVG-20010904/DTD/svg10.dtd">
<svg version="1.0" xmlns="http://www.w3.org/2000/svg"
 width="900.000000pt" height="900.000000pt" viewBox="0 0 900.000000 900.000000"
 preserveAspectRatio="xMidYMid meet">
<metadata>
Created by potrace 1.10, written by Peter Selinger 2001-2011
</metadata>
<g transform="translate(0.000000,900.000000) scale(0.100000,-0.100000)"
fill="#000000" stroke="none">
<path d="M4123 8988 c1 -9 -23 -15 -83 -21 -47 -4 -116 -12 -155 -18 -38 -6
-97 -15 -130 -19 -87 -11 -162 -27 -340 -70 -27 -7 -66 -16 -85 -21 -19 -4
-66 -17 -105 -29 -38 -12 -83 -25 -100 -30 -66 -19 -200 -68 -330 -120 -149
-61 -358 -160 -470 -224 -33 -19 -78 -44 -100 -56 -22 -12 -59 -35 -83 -51
-24 -16 -45 -29 -47 -29 -9 0 -233 -155 -328 -228 -310 -234 -625 -549 -859
-859 -73 -95 -228 -319 -228 -328 0 -2 -13 -23 -29 -47 -16 -24 -39 -61 -51
-83 -12 -22 -37 -67 -56 -100 -82 -144 -207 -416 -269 -585 -7 -19 -19 -53
-27 -75 -25 -68 -39 -109 -48 -140 -5 -16 -18 -61 -30 -100 -12 -38 -25 -86
-29 -105 -5 -19 -14 -57 -21 -85 -38 -156 -58 -251 -66 -310 -2 -16 -11 -73
-19 -125 -28 -186 -35 -320 -35 -640 0 -320 7 -454 35 -640 8 -52 17 -108 19
-125 8 -59 28 -154 66 -310 7 -27 16 -66 21 -85 4 -19 17 -66 29 -105 12 -38
25 -83 30 -100 9 -31 23 -72 48 -140 8 -22 20 -56 27 -75 62 -169 187 -441
269 -585 19 -33 44 -78 56 -100 12 -22 35 -59 51 -83 16 -24 29 -45 29 -47 0
-9 155 -233 228 -328 234 -310 549 -625 859 -859 95 -73 319 -228 328 -228 2
0 23 -13 47 -29 24 -16 61 -39 83 -51 22 -12 67 -37 100 -56 145 -82 407 -203
588 -270 103 -39 175 -64 212 -74 17 -5 62 -18 100 -30 39 -12 86 -25 105 -29
19 -5 58 -14 85 -21 156 -38 251 -58 310 -66 17 -2 73 -11 125 -19 201 -31
351 -37 710 -32 416 7 561 19 747 63 34 8 71 14 84 14 12 0 45 6 73 14 48 14
108 28 186 47 19 4 67 17 105 29 39 12 84 25 100 30 66 19 200 68 330 120 149
61 358 160 470 224 33 19 78 44 100 56 22 12 59 35 83 51 24 16 45 29 47 29 9
0 233 155 328 228 310 234 625 549 859 859 73 95 228 319 228 328 0 2 13 23
29 47 16 24 39 61 51 83 12 22 37 67 56 100 36 63 125 242 166 335 62 138 151
371 178 465 5 17 18 62 30 100 12 39 25 86 29 105 5 19 14 58 21 85 44 183 59
254 70 345 5 36 13 85 19 110 6 25 11 72 11 105 2 87 14 150 28 147 9 -1 12
84 12 368 0 284 -3 369 -12 367 -14 -2 -26 61 -28 148 0 33 -5 80 -11 105 -6
25 -14 74 -19 110 -11 91 -26 162 -70 345 -7 28 -16 66 -21 85 -4 19 -17 67
-29 105 -12 39 -25 84 -30 100 -10 37 -35 109 -74 213 -67 180 -209 485 -284
612 -11 19 -30 53 -42 75 -12 22 -35 59 -51 83 -16 24 -29 45 -29 47 0 6 -150
227 -167 247 -14 16 -12 25 25 100 96 195 100 400 12 593 -69 150 -195 276
-345 345 -192 88 -390 85 -583 -8 -84 -40 -95 -43 -110 -29 -18 16 -242 167
-248 167 -1 0 -22 13 -46 29 -24 16 -61 39 -83 51 -22 12 -67 37 -100 56 -147
83 -416 207 -585 269 -19 7 -53 19 -75 27 -68 25 -109 39 -140 48 -16 5 -61
18 -100 30 -38 12 -86 25 -105 29 -19 5 -57 14 -85 21 -183 44 -254 59 -345
70 -36 5 -85 13 -110 19 -25 6 -72 11 -105 11 -87 2 -150 14 -147 28 1 9 -84
12 -368 12 -291 0 -369 -3 -367 -12z m622 -354 c94 -3 206 -12 250 -20 44 -7
95 -14 113 -14 18 0 61 -6 95 -14 60 -13 139 -30 222 -46 43 -8 164 -41 330
-90 68 -20 210 -71 293 -106 58 -25 107 -46 137 -59 55 -24 290 -142 325 -163
19 -11 52 -30 72 -41 21 -11 57 -33 80 -48 24 -15 48 -30 53 -33 6 -3 43 -27
83 -55 40 -27 82 -54 93 -60 23 -12 34 -42 21 -58 -6 -7 -20 -41 -33 -77 -19
-56 -23 -85 -23 -210 0 -122 4 -154 22 -205 80 -228 229 -377 457 -457 51 -18
83 -22 205 -22 125 0 154 4 210 23 36 13 70 27 77 33 16 13 46 2 58 -21 6 -11
33 -53 60 -93 28 -40 52 -77 55 -83 3 -5 18 -29 33 -53 15 -23 37 -59 48 -80
11 -20 30 -53 41 -72 12 -19 50 -93 85 -165 64 -128 77 -156 106 -225 8 -19
21 -51 29 -70 34 -79 87 -224 108 -295 49 -166 82 -287 90 -330 16 -83 33
-162 46 -222 8 -34 14 -76 14 -92 0 -16 7 -72 15 -123 34 -218 34 -778 0 -996
-8 -51 -15 -107 -15 -123 0 -16 -6 -58 -14 -92 -13 -60 -30 -139 -46 -222 -8
-43 -41 -164 -90 -330 -20 -68 -71 -210 -106 -292 -8 -18 -21 -49 -29 -68 -27
-66 -43 -100 -111 -235 -71 -143 -83 -167 -114 -215 -11 -16 -24 -39 -29 -50
-5 -11 -21 -37 -35 -58 -14 -21 -26 -40 -26 -42 0 -3 -35 -56 -114 -170 -129
-186 -262 -342 -461 -540 -198 -199 -354 -332 -540 -461 -114 -79 -167 -114
-170 -114 -2 0 -21 -12 -42 -26 -21 -14 -47 -30 -58 -35 -11 -5 -33 -18 -50
-29 -72 -46 -342 -181 -452 -227 -18 -7 -48 -19 -65 -27 -83 -35 -225 -86
-293 -106 -166 -49 -287 -82 -330 -90 -83 -16 -162 -33 -222 -46 -34 -8 -76
-14 -92 -14 -16 0 -72 -7 -123 -15 -224 -35 -819 -33 -1043 4 -38 7 -113 19
-165 27 -52 9 -122 22 -155 29 -33 8 -71 16 -85 18 -29 5 -162 42 -315 87 -68
20 -210 71 -292 106 -18 8 -48 20 -65 28 -96 40 -283 131 -373 181 -33 19 -69
39 -80 45 -21 11 -35 19 -103 63 -24 15 -45 27 -47 27 -3 0 -56 36 -170 114
-186 129 -342 262 -540 461 -199 198 -332 354 -461 540 -78 114 -114 167 -114
170 0 2 -12 23 -28 47 -43 68 -51 82 -62 103 -6 11 -26 47 -45 80 -50 90 -141
277 -181 373 -8 17 -20 47 -28 65 -35 82 -86 224 -106 292 -49 166 -82 287
-90 330 -16 83 -33 162 -46 222 -8 34 -14 76 -14 92 0 16 -7 72 -15 123 -8 51
-18 184 -23 296 -19 473 27 899 144 1317 32 111 47 161 56 185 5 14 20 56 33
95 37 107 51 143 130 320 34 75 125 259 153 305 11 19 30 53 42 75 12 22 35
59 51 83 16 24 29 45 29 47 0 3 36 56 114 170 129 186 262 342 461 540 198
199 354 332 540 461 114 78 167 114 170 114 2 0 23 12 47 28 68 43 82 51 103
62 11 6 47 26 80 45 131 73 339 171 510 238 50 20 180 66 220 77 166 49 287
82 330 90 83 16 162 33 222 46 34 8 76 14 92 14 16 0 72 7 123 15 101 16 439
35 528 29 30 -2 132 -6 225 -10z"/>
<path d="M4170 6544 c-134 -26 -224 -46 -260 -59 -19 -7 -62 -21 -95 -31 -74
-22 -124 -43 -240 -100 -92 -46 -100 -50 -173 -96 -24 -16 -45 -28 -48 -28
-20 0 -231 -175 -330 -274 -99 -99 -274 -310 -274 -330 0 -3 -12 -24 -27 -48
-47 -73 -51 -81 -97 -173 -57 -116 -78 -166 -100 -240 -10 -33 -24 -76 -31
-95 -14 -38 -35 -137 -60 -270 -21 -118 -21 -502 0 -620 47 -258 94 -408 191
-605 46 -92 50 -100 97 -173 15 -24 27 -45 27 -48 0 -20 175 -231 274 -330 99
-99 310 -274 330 -274 3 0 24 -12 48 -27 24 -16 52 -34 63 -40 35 -22 198
-100 255 -123 30 -12 66 -27 80 -32 14 -6 41 -14 60 -19 19 -4 78 -19 130 -32
187 -48 263 -57 503 -57 227 0 264 4 467 46 41 9 90 22 108 30 18 8 41 14 52
14 11 0 34 6 52 14 18 8 58 24 88 36 57 23 220 101 255 123 11 6 39 24 63 40
24 15 45 27 48 27 20 0 231 175 330 274 99 99 274 310 274 330 0 3 13 24 29
48 42 63 104 184 146 285 20 48 43 103 51 121 8 18 14 41 14 52 0 11 6 34 14
52 14 34 34 120 61 268 21 118 21 507 0 622 -28 149 -47 232 -61 266 -8 18
-14 41 -14 52 0 11 -6 34 -14 52 -8 18 -24 58 -36 88 -23 57 -101 220 -123
255 -6 11 -24 39 -39 63 -16 24 -28 45 -28 48 0 20 -175 231 -274 330 -99 99
-310 274 -330 274 -3 0 -24 12 -48 28 -24 15 -52 33 -63 39 -35 22 -198 100
-255 123 -30 12 -70 28 -88 36 -18 8 -41 14 -52 14 -11 0 -34 6 -52 14 -34 14
-117 33 -266 61 -109 20 -523 19 -632 -1z"/>
</g>
</svg>
