<?xml version="1.0" standalone="no"?>
<!DOCTYPE svg PUBLIC "-//W3C//DTD SVG 20010904//EN"
 "http://www.w3.org/TR/2001/REC-SVG-20010904/DTD/svg10.dtd">
<svg version="1.0" xmlns="http://www.w3.org/2000/svg"
 width="300.000000pt" height="257.000000pt" viewBox="0 0 300.000000 257.000000"
 preserveAspectRatio="xMidYMid meet">
<metadata>
Created by potrace 1.10, written by Peter Selinger 2001-2011
</metadata>
<g transform="translate(0.000000,257.000000) scale(0.050000,-0.050000)"
fill="#000000" stroke="none">
<path d="M960 5030 l0 -110 2040 0 2040 0 0 110 0 110 -2040 0 -2040 0 0 -110z"/>
<path d="M540 4610 l0 -110 2460 0 2460 0 0 110 0 110 -2460 0 -2460 0 0 -110z"/>
<path d="M0 2140 l0 -2140 3000 0 3000 0 0 2140 0 2140 -3000 0 -3000 0 0
-2140z m5780 0 l0 -1920 -2780 0 -2780 0 0 1920 0 1920 2780 0 2780 0 0 -1920z"/>
</g>
</svg>
