<?xml version="1.0" standalone="no"?>
<!DOCTYPE svg PUBLIC "-//W3C//DTD SVG 20010904//EN"
 "http://www.w3.org/TR/2001/REC-SVG-20010904/DTD/svg10.dtd">
<svg version="1.0" xmlns="http://www.w3.org/2000/svg"
 width="900.000000pt" height="882.000000pt" viewBox="0 0 900.000000 882.000000"
 preserveAspectRatio="xMidYMid meet">
<metadata>
Created by potrace 1.10, written by Peter Selinger 2001-2011
</metadata>
<g transform="translate(0.000000,882.000000) scale(0.100000,-0.100000)"
fill="#000000" stroke="none">
<path d="M2800 8357 c0 -347 3 -466 12 -475 8 -8 63 -12 180 -12 153 0 168 2
177 19 6 11 10 192 11 475 l0 456 -190 0 -190 0 0 -463z"/>
<path d="M962 7964 l-123 -125 20 -27 c29 -40 625 -632 637 -632 5 0 67 58
138 129 l129 130 -326 325 c-179 179 -331 326 -339 326 -7 -1 -68 -57 -136
-126z"/>
<path d="M4541 7764 l-324 -325 129 -130 c71 -71 133 -129 139 -129 11 0 606
591 636 632 l20 27 -124 126 c-68 69 -130 125 -138 124 -8 0 -160 -146 -338
-325z"/>
<path d="M2593 6399 c-214 -214 -389 -394 -391 -399 -4 -11 5978 -6000 5993
-6000 6 0 183 173 395 385 211 212 390 385 397 385 7 0 13 7 13 15 0 8 -5 15
-11 15 -7 0 -315 305 -687 678 -1881 1888 -5305 5312 -5313 5312 -5 0 -183
-176 -396 -391z m3505 -3242 c1293 -1293 2352 -2358 2352 -2366 0 -16 -239
-260 -255 -261 -5 0 -821 813 -1813 1808 -991 994 -2051 2056 -2355 2359
l-552 553 130 130 c71 71 132 130 135 130 3 0 1064 -1059 2358 -2353z"/>
<path d="M0 5995 l0 -185 463 2 462 3 3 168 c2 118 0 173 -9 183 -10 12 -86
14 -465 14 l-454 0 0 -185z"/>
<path d="M5061 6166 c-8 -9 -11 -66 -9 -182 l3 -169 468 -3 467 -2 -2 182 -3
183 -456 3 c-380 2 -458 0 -468 -12z"/>
<path d="M1160 4375 l-324 -324 124 -126 c85 -86 130 -125 144 -123 13 1 146
127 341 325 l320 323 -125 125 c-69 69 -132 125 -140 125 -8 0 -161 -146 -340
-325z"/>
<path d="M2812 4008 c-9 -9 -12 -124 -12 -454 0 -243 3 -449 6 -458 9 -24 359
-24 368 -1 11 29 5 899 -6 912 -14 18 -339 18 -356 1z"/>
</g>
</svg>
